<svg width="60" height="60" viewBox="0 0 60 60" fill="none" xmlns="http://www.w3.org/2000/svg">
<path d="M54.4252 32.5502C54.3486 33.6034 53.9663 34.6112 53.3252 35.4502C52.9955 35.8385 52.5919 36.1572 52.1377 36.3877C50.4831 42.0567 46.7277 46.8807 41.6377 49.8752C41.1752 50.1502 40.7127 50.4002 40.2377 50.6377C40.0002 50.7502 39.7627 50.8752 39.5252 50.9752C39.0377 51.2002 38.5502 51.4002 38.0502 51.5877C37.5502 51.7752 37.0502 51.9502 36.5252 52.1002C35.7519 52.3273 34.9676 52.5151 34.1753 52.6627C32.7993 52.9258 31.4012 53.0556 30.0003 53.0502C26.9815 53.0526 23.9916 52.4623 21.2003 51.3127C20.4296 51.7579 19.5253 51.913 18.6503 51.7502C17.494 51.4953 16.4276 50.934 15.5628 50.1252C15.4503 50.0252 15.3253 49.9252 15.2128 49.8127L14.9503 49.5502C14.7878 49.3627 14.6253 49.1627 14.4628 48.9502C14.4003 48.8377 14.3253 48.7127 14.2628 48.5877C13.9716 47.9632 13.8968 47.2595 14.0503 46.5877C14.0503 46.5752 14.0378 46.5752 14.0128 46.5627C13.9128 46.4502 13.8128 46.3627 13.7127 46.2502C13.3627 45.9127 13.0377 45.5627 12.7127 45.2002L12.6127 45.0877C8.84211 40.7658 6.82443 35.1898 6.95627 29.4557C7.08811 23.7217 9.35994 18.2443 13.3252 14.1002C13.263 13.1106 13.5457 12.1299 14.1252 11.3252C14.9567 10.2868 16.0009 9.43864 17.1877 8.83773C17.797 8.41121 18.5329 8.20408 19.2752 8.25023C19.7961 8.35787 20.2817 8.59423 20.6877 8.93773C22.0752 8.32305 23.5196 7.84577 25.0002 7.51273C26.6401 7.13582 28.3176 6.9471 30.0002 6.95023C32.828 6.94794 35.631 7.478 38.2627 8.51273C41.2384 9.67498 43.9434 11.4365 46.2098 13.6878C48.4762 15.9392 50.2557 18.6324 51.4377 21.6002C51.5252 21.8252 51.6252 22.0627 51.7002 22.3002C51.8627 22.7627 52.0252 23.2377 52.1627 23.7252C52.2252 23.9627 52.2877 24.2002 52.3502 24.4502C52.4263 24.7085 52.4848 24.9716 52.5252 25.2377C52.6002 25.5627 52.6627 25.8877 52.7127 26.2252C52.7449 26.3529 52.77 26.4823 52.7877 26.6127C52.8502 27.0377 52.9002 27.4627 52.9377 27.9002C53.494 28.5301 53.9135 29.2687 54.1696 30.0691C54.4256 30.8695 54.5127 31.7144 54.4252 32.5502Z" fill="#DBD0D1"/>
<path d="M44.85 40.0124C46.525 39.8999 44.55 42.4249 44.0375 42.8124C43.5916 43.1694 43.0547 43.3946 42.4875 43.4624C42.2062 43.499 41.9203 43.4707 41.6516 43.3797C41.383 43.2887 41.1387 43.1374 40.9375 42.9374C41.8875 41.9624 43.3625 40.0999 44.85 40.0124Z" fill="#86888D"/>
<path d="M38.0376 33.5875C38.1057 34.0217 38.0403 34.4663 37.8501 34.8625C37.54 35.4643 37.0449 35.9507 36.4376 36.25C35.8665 36.5949 35.2254 36.8076 34.5614 36.8725C33.8973 36.9374 33.2272 36.8529 32.6001 36.625C32.0627 36.4149 31.5897 36.0678 31.2279 35.6183C30.866 35.1687 30.6281 34.6324 30.5376 34.0625C30.5106 33.8847 30.5022 33.7046 30.5126 33.525C30.7876 29.5 37.5626 30.5125 38.0376 33.575V33.5875Z" fill="#86888D"/>
<path d="M16.0999 31.9873C16.9685 31.9873 17.8015 32.3324 18.4157 32.9466C19.0299 33.5607 19.3749 34.3938 19.3749 35.2623C19.3749 36.1309 19.0299 36.9639 18.4157 37.5781C17.8015 38.1923 16.9685 38.5373 16.0999 38.5373C15.9242 38.5373 15.7488 38.5248 15.5749 38.4998C16.0135 38.0916 16.319 37.5607 16.4513 36.9762C16.5836 36.3918 16.5368 35.7811 16.3168 35.2237C16.0968 34.6663 15.7139 34.1882 15.2181 33.8517C14.7223 33.5152 14.1366 33.336 13.5374 33.3373H13.4624C13.7619 32.9176 14.1577 32.576 14.6167 32.3411C15.0757 32.1061 15.5843 31.9848 16.0999 31.9873Z" fill="#86888D"/>
<path d="M17.9751 21.3C18.3078 21.5359 18.572 21.8559 18.7403 22.2274C18.9087 22.5989 18.9754 23.0085 18.9334 23.4142C18.8914 23.82 18.7424 24.2072 18.5015 24.5364C18.2606 24.8656 17.9366 25.1248 17.5626 25.2875C17.0629 25.4685 16.5284 25.5326 16.0001 25.475C15.7351 25.4596 15.4739 25.4048 15.2251 25.3125C15.0404 25.2553 14.8757 25.147 14.7501 25C14.6042 24.8134 14.5035 24.5955 14.4558 24.3635C14.4081 24.1315 14.4147 23.8916 14.4751 23.6625C14.6705 22.8154 15.1683 22.0687 15.8751 21.5625C16.1601 21.3164 16.5116 21.1601 16.8853 21.1134C17.259 21.0667 17.6382 21.1316 17.9751 21.3Z" fill="#9C9495"/>
<path d="M45.3249 18.2751C45.5268 18.8781 45.5081 19.5331 45.2724 20.1236C45.0366 20.7142 44.599 21.2019 44.0374 21.5001C43.6638 21.6294 43.2684 21.6839 42.8738 21.6603C42.4791 21.6367 42.093 21.5355 41.7374 21.3626C40.7675 20.9639 39.9794 20.2203 39.5249 19.2751C39.3088 18.8042 39.2172 18.2856 39.2588 17.7691C39.3004 17.2526 39.4738 16.7554 39.7624 16.3251C41.5124 13.8876 44.6749 16.1251 45.3249 18.2751Z" fill="#6D6F6A"/>
<path d="M43.1274 22.2967C42.5625 22.2889 42.0051 22.1662 41.4892 21.936C40.3734 21.479 39.4693 20.6206 38.955 19.53C38.6942 18.9591 38.5848 18.3307 38.6374 17.7054C38.69 17.08 38.9028 16.4787 39.2553 15.9594C39.5658 15.4815 40.0101 15.1056 40.5328 14.8785C41.0555 14.6514 41.6335 14.5833 42.1947 14.6826C43.0563 14.8843 43.8517 15.304 44.5045 15.9015C45.1573 16.4989 45.6456 17.254 45.9228 18.0944C46.1684 18.8455 46.1376 19.6597 45.8359 20.39C45.5342 21.1204 44.9814 21.7189 44.2773 22.0776C43.9121 22.2256 43.5214 22.3 43.1274 22.2967ZM41.6809 15.8892C41.3976 15.8943 41.1201 15.9702 40.8736 16.1099C40.6271 16.2497 40.4196 16.4489 40.2697 16.6894L40.2661 16.6937C40.0434 17.0361 39.9112 17.4294 39.8817 17.8368C39.8523 18.2442 39.9266 18.6525 40.0976 19.0234C40.4891 19.8238 41.1612 20.4522 41.9861 20.7891C42.5495 21.0692 43.2003 21.1171 43.7988 20.9228C44.2166 20.6836 44.5378 20.306 44.7069 19.8553C44.8761 19.4046 44.8826 18.9089 44.7253 18.4539C44.5152 17.8374 44.1552 17.2826 43.6778 16.8396C43.2003 16.3965 42.6202 16.079 41.9897 15.9155C41.8877 15.8982 41.7844 15.8894 41.6809 15.8892Z" fill="#86888D"/>
<path d="M42.2536 44.1012C41.9238 44.1054 41.5967 44.0422 41.2921 43.9157C40.9876 43.7891 40.712 43.6018 40.4823 43.3651C40.372 43.2481 40.3112 43.0929 40.3125 42.9321C40.3139 42.7713 40.3774 42.6172 40.4897 42.5021C40.6313 42.3568 40.7839 42.1921 40.9462 42.0168C41.9399 40.9451 43.301 39.4778 44.8134 39.3887C45.0675 39.333 45.3332 39.3696 45.5629 39.4918C45.7925 39.614 45.9713 39.8139 46.0671 40.0558C46.4894 41.1868 44.7475 43.0599 44.4155 43.3108C43.8763 43.7403 43.2268 44.0087 42.5417 44.0853C42.446 44.096 42.3499 44.1013 42.2536 44.1012ZM41.9179 42.8072C42.0817 42.8487 42.2517 42.8603 42.4196 42.8414C42.8757 42.7857 43.3068 42.6025 43.6635 42.3129C44.1614 41.8354 44.5637 41.2674 44.8488 40.6393C43.8649 40.7296 42.7504 41.9106 41.9179 42.8072Z" fill="#B6ACB8"/>
<path d="M37.2252 44.4C37.1057 44.4 36.9887 44.3657 36.888 44.3013C36.7874 44.2368 36.7073 44.1449 36.6574 44.0363C36.6074 43.9277 36.5896 43.8071 36.6061 43.6888C36.6226 43.5704 36.6726 43.4592 36.7504 43.3685C37.149 42.9783 37.6311 42.6839 38.1602 42.5074C38.6893 42.331 39.2516 42.2771 39.8046 42.3498L40.3111 42.3736C40.5443 42.3864 40.7762 42.3998 41.0118 42.3998C41.1776 42.3998 41.3366 42.4657 41.4538 42.5829C41.571 42.7001 41.6368 42.8591 41.6368 43.0248C41.6368 43.1906 41.571 43.3496 41.4538 43.4668C41.3366 43.584 41.1776 43.6498 41.0118 43.6498C40.7531 43.6498 40.4979 43.6358 40.2416 43.6218L39.7679 43.5998C39.4017 43.5402 39.0268 43.5613 38.6696 43.6618C38.3124 43.7623 37.9815 43.9396 37.7001 44.1815C37.6415 44.2501 37.5687 44.3052 37.4867 44.343C37.4047 44.3807 37.3155 44.4001 37.2252 44.4Z" fill="#B6ACB8"/>
<path d="M41.6747 39.1626C41.5311 39.1628 41.3918 39.1135 41.2804 39.0228C41.0741 38.8556 40.8678 38.6878 40.6627 38.5077C40.5382 38.3982 40.4622 38.2438 40.4515 38.0784C40.4408 37.9129 40.4962 37.75 40.6056 37.6254C40.715 37.5008 40.8694 37.4247 41.0348 37.4139C41.2003 37.4031 41.3632 37.4585 41.4879 37.5678C41.6808 37.7368 41.8749 37.8949 42.0677 38.0524C42.1683 38.1336 42.2411 38.2439 42.2763 38.3683C42.3114 38.4926 42.3071 38.6248 42.264 38.7466C42.2209 38.8684 42.141 38.9738 42.0355 39.0483C41.9299 39.1228 41.8039 39.1628 41.6747 39.1626Z" fill="#B6ACB8"/>
<path d="M45.0379 25.1003C44.9408 25.1004 44.845 25.0778 44.7581 25.0344C44.6712 24.9909 44.5957 24.9278 44.5374 24.8501C44.3223 24.5575 44.19 24.2124 44.1543 23.851C44.1186 23.4896 44.181 23.1252 44.3348 22.7963C44.3692 22.7211 44.4182 22.6535 44.479 22.5975C44.5397 22.5414 44.611 22.4979 44.6886 22.4696C44.7663 22.4412 44.8488 22.4285 44.9314 22.4323C45.0139 22.436 45.0949 22.4561 45.1697 22.4914C45.2445 22.5267 45.3115 22.5765 45.3669 22.6378C45.4223 22.6992 45.465 22.7709 45.4924 22.8489C45.5199 22.9268 45.5316 23.0095 45.527 23.092C45.5223 23.1746 45.5013 23.2553 45.4652 23.3297C45.409 23.4534 45.3861 23.5897 45.399 23.7249C45.4118 23.8602 45.4599 23.9897 45.5384 24.1006C45.6078 24.1935 45.6501 24.3039 45.6603 24.4195C45.6706 24.535 45.6486 24.6512 45.5966 24.7549C45.5447 24.8586 45.465 24.9459 45.3663 25.0069C45.2676 25.0679 45.1539 25.1002 45.0379 25.1003Z" fill="#B6ACB8"/>
<path d="M39.1246 15.4378C39.0177 15.4379 38.9125 15.4104 38.8194 15.3578C38.4124 15.1278 38.0715 14.7968 37.8295 14.3968C37.5875 13.9968 37.4525 13.5412 37.4376 13.074C37.4348 12.9082 37.4979 12.7482 37.613 12.6289C37.7281 12.5097 37.8859 12.441 38.0516 12.438C38.2144 12.4449 38.3689 12.5111 38.4861 12.6243C38.6033 12.7374 38.675 12.8896 38.6876 13.052C38.6986 13.3008 38.7725 13.5428 38.9022 13.7554C39.032 13.968 39.2135 14.1443 39.4298 14.2678C39.5506 14.3352 39.6456 14.4409 39.6998 14.5681C39.7541 14.6953 39.7646 14.837 39.7297 14.9709C39.6948 15.1047 39.6164 15.2232 39.5069 15.3077C39.3974 15.3922 39.2629 15.438 39.1246 15.4378Z" fill="#B6ACB8"/>
<path d="M16.3879 26.1145C16.2487 26.1145 16.1047 26.109 15.9545 26.098C15.6218 26.0785 15.2941 26.0079 14.9829 25.8887C14.7047 25.7951 14.458 25.6263 14.27 25.401C14.0608 25.1457 13.9147 24.8448 13.8437 24.5225C13.7726 24.2002 13.7786 23.8657 13.861 23.5461C14.0821 22.5414 14.6685 21.6545 15.5065 21.0577C15.8865 20.7401 16.3517 20.5416 16.8439 20.487C17.3361 20.4324 17.8335 20.5242 18.2739 20.7507C18.7085 20.9965 19.0628 21.3626 19.2941 21.8051C19.5255 22.2476 19.6239 22.7475 19.5776 23.2446C19.5515 23.8033 19.3715 24.3438 19.0574 24.8066C18.7433 25.2693 18.3074 25.6362 17.7978 25.8667C17.3486 26.0408 16.8695 26.125 16.3879 26.1145ZM17.163 21.7151C16.8287 21.7324 16.5083 21.8548 16.2475 22.0648L16.2402 22.0697C15.6659 22.479 15.2582 23.0813 15.0914 23.7665C15.0503 23.9014 15.0393 24.0438 15.0594 24.1834C15.0794 24.3231 15.13 24.4566 15.2074 24.5746C15.2624 24.6439 15.3374 24.6946 15.4222 24.7198C15.6269 24.7953 15.8417 24.8401 16.0595 24.8529C16.4864 24.9017 16.9189 24.8527 17.3241 24.7095C17.6172 24.57 17.8662 24.3524 18.0436 24.0806C18.2211 23.8089 18.3202 23.4934 18.33 23.1689C18.3575 22.9086 18.3101 22.6458 18.1933 22.4115C18.0765 22.1771 17.8952 21.9811 17.6708 21.8463C17.5154 21.7602 17.3407 21.715 17.163 21.7151Z" fill="#86888D"/>
<path d="M20.3504 20.85C20.204 20.85 20.0623 20.7986 19.95 20.7048C19.8377 20.611 19.7618 20.4808 19.7356 20.3368C19.7095 20.1928 19.7347 20.0442 19.8069 19.917C19.8791 19.7897 19.9937 19.6917 20.1306 19.6403C20.416 19.5326 20.6649 19.3462 20.8484 19.1026C20.8973 19.0367 20.9587 18.9811 21.0291 18.9389C21.0995 18.8967 21.1775 18.8689 21.2586 18.8568C21.3398 18.8448 21.4225 18.8489 21.5021 18.8689C21.5817 18.8888 21.6566 18.9243 21.7224 18.9732C21.7883 19.022 21.8439 19.0834 21.8861 19.1538C21.9283 19.2242 21.9561 19.3022 21.9682 19.3834C21.9802 19.4645 21.9761 19.5473 21.9561 19.6268C21.9362 19.7064 21.9007 19.7813 21.8518 19.8472C21.5262 20.2848 21.0811 20.619 20.5701 20.8097C20.4999 20.8364 20.4255 20.8501 20.3504 20.85Z" fill="#B6ACB8"/>
<path d="M15.8753 22.1877C15.7118 22.1877 15.5549 22.1237 15.438 22.0094C15.3212 21.8951 15.2538 21.7395 15.2503 21.5761C15.2406 21.1587 15.0786 20.7593 14.795 20.453C14.7388 20.3933 14.6949 20.323 14.6659 20.2462C14.6369 20.1695 14.6232 20.0878 14.6258 20.0058C14.6283 19.9238 14.647 19.8431 14.6808 19.7683C14.7145 19.6935 14.7626 19.6261 14.8224 19.5699C14.8822 19.5137 14.9525 19.4698 15.0292 19.4408C15.106 19.4118 15.1877 19.3981 15.2697 19.4007C15.3517 19.4032 15.4324 19.4219 15.5072 19.4557C15.582 19.4894 15.6494 19.5375 15.7056 19.5973C16.1992 20.1296 16.4818 20.8236 16.5003 21.5492C16.5037 21.715 16.4413 21.8753 16.3266 21.995C16.2119 22.1147 16.0544 22.184 15.8887 22.1877H15.8753Z" fill="#86888D"/>
<path d="M14.2369 28.1127C14.1121 28.1127 13.9902 28.0754 13.8868 28.0055C13.7834 27.9356 13.7033 27.8363 13.6568 27.7205C13.6103 27.6047 13.5996 27.4776 13.6259 27.3556C13.6523 27.2336 13.7146 27.1223 13.8048 27.0361C14.2803 26.5723 14.5643 25.9469 14.6007 25.2837C14.6045 25.2018 14.6243 25.1215 14.6591 25.0472C14.694 24.973 14.7431 24.9063 14.8037 24.8511C14.8643 24.7958 14.9351 24.753 15.0123 24.7252C15.0894 24.6973 15.1712 24.6849 15.2532 24.6886C15.3351 24.6924 15.4154 24.7123 15.4897 24.7471C15.5639 24.7819 15.6306 24.831 15.6858 24.8916C15.7411 24.9522 15.7839 25.0231 15.8117 25.1002C15.8396 25.1773 15.852 25.2592 15.8483 25.3411C15.7949 26.3244 15.374 27.2518 14.6691 27.9394C14.5528 28.0509 14.398 28.113 14.2369 28.1127Z" fill="#86888D"/>
<path d="M34.0627 52.6753C33.9553 52.6756 33.8497 52.6478 33.7563 52.5947C30.3552 50.6501 27.5497 47.8137 25.6423 44.3916C25.6015 44.3199 25.5753 44.2408 25.5652 44.1589C25.5551 44.077 25.5614 43.9939 25.5836 43.9145C25.6058 43.835 25.6435 43.7607 25.6946 43.6959C25.7457 43.6311 25.8091 43.5771 25.8812 43.537C25.9533 43.4968 26.0326 43.4713 26.1146 43.462C26.1965 43.4527 26.2795 43.4597 26.3588 43.4826C26.4381 43.5056 26.512 43.544 26.5763 43.5957C26.6406 43.6473 26.6941 43.7112 26.7336 43.7837C28.5285 47.0047 31.1685 49.6747 34.3691 51.5058C34.4894 51.5736 34.5839 51.6793 34.6378 51.8065C34.6917 51.9337 34.7019 52.0751 34.6669 52.2087C34.6319 52.3423 34.5536 52.4606 34.4443 52.545C34.335 52.6294 34.2008 52.6752 34.0627 52.6753Z" fill="#86888D"/>
<path d="M25.0628 42.8102C24.9301 42.81 24.8008 42.7677 24.6937 42.6892C24.5866 42.6108 24.5073 42.5003 24.4671 42.3738C24.2999 41.847 24.1461 41.3075 24.0167 40.7685C23.9787 40.6076 24.0061 40.4382 24.0928 40.2974C24.1795 40.1566 24.3185 40.0558 24.4793 40.0173C24.6401 39.9787 24.8096 40.0054 24.9508 40.0915C25.0919 40.1776 25.1932 40.3162 25.2325 40.4768C25.3546 40.9877 25.501 41.4979 25.6585 41.9966C25.6882 42.0902 25.6954 42.1895 25.6795 42.2865C25.6636 42.3834 25.6251 42.4752 25.567 42.5545C25.509 42.6337 25.4331 42.6982 25.3455 42.7426C25.2579 42.787 25.161 42.8102 25.0628 42.8102Z" fill="#86888D"/>
<path d="M42.3267 19.9877C42.2977 19.9878 42.2687 19.9858 42.24 19.9816C41.9927 19.9463 41.7584 19.8488 41.559 19.6983C41.3596 19.5478 41.2016 19.3492 41.0999 19.121C41.0026 18.8884 40.9672 18.6345 40.9972 18.3841C41.0271 18.1337 41.1214 17.8953 41.2708 17.6922C41.3691 17.5585 41.5164 17.4693 41.6804 17.4442C41.8445 17.4191 42.0117 17.4602 42.1454 17.5585C42.2792 17.6568 42.3683 17.8041 42.3934 17.9681C42.4185 18.1322 42.3774 18.2994 42.2791 18.4331C42.2581 18.4607 42.2444 18.4931 42.2393 18.5273C42.2342 18.5616 42.2378 18.5966 42.2498 18.6291C42.266 18.6593 42.289 18.6854 42.317 18.7053C42.3449 18.7252 42.3771 18.7384 42.411 18.7438C42.5676 18.7655 42.7102 18.8458 42.81 18.9685C42.9098 19.0912 42.9594 19.2472 42.9487 19.405C42.938 19.5628 42.8679 19.7107 42.7524 19.8188C42.637 19.927 42.4849 19.9873 42.3267 19.9877Z" fill="#86888D"/>
<path d="M38.0371 34.2066C37.9553 34.2073 37.8742 34.1918 37.7985 34.1611C37.7227 34.1303 37.6538 34.0848 37.5957 34.0273C37.5376 33.9698 37.4915 33.9013 37.46 33.8258C37.4284 33.7504 37.4122 33.6694 37.4121 33.5877C37.4119 33.4647 37.447 33.3442 37.5132 33.2406C37.5794 33.1369 37.674 33.0545 37.7856 33.003C39.2823 32.3445 40.8156 31.7727 42.3779 31.2903C42.4564 31.2657 42.539 31.2569 42.6209 31.2642C42.7029 31.2716 42.7825 31.2951 42.8554 31.3334C42.9282 31.3717 42.9927 31.4239 43.0453 31.4872C43.0979 31.5505 43.1374 31.6235 43.1617 31.7021C43.186 31.7807 43.1945 31.8633 43.1867 31.9452C43.179 32.0271 43.1552 32.1067 43.1166 32.1794C43.078 32.252 43.0255 32.3164 42.962 32.3687C42.8985 32.421 42.8253 32.4602 42.7466 32.4842C41.2531 32.946 39.7867 33.4915 38.3545 34.1181C38.2588 34.1761 38.149 34.2067 38.0371 34.2066Z" fill="#B6ACB8"/>
<path d="M34.0721 37.5268C33.4877 37.53 32.9083 37.4204 32.3655 37.2039C31.7248 36.9535 31.1613 36.539 30.7315 36.0019C30.3016 35.4649 30.0207 34.8242 29.9168 34.1442C29.8855 33.9247 29.8761 33.7027 29.8887 33.4814C29.9513 32.5682 30.3725 31.7168 31.0603 31.1128C31.7482 30.5089 32.6469 30.2014 33.5606 30.2575C35.7493 30.1733 38.3274 31.3683 38.6546 33.4789C38.6584 33.5005 38.6604 33.5223 38.6607 33.5442C38.7061 33.9295 38.6784 34.3198 38.5789 34.6948C38.5334 34.8478 38.4767 34.9974 38.4092 35.1421C38.0438 35.8599 37.457 36.441 36.7356 36.7992C35.9264 37.27 35.0082 37.5208 34.0721 37.5268ZM33.7986 31.5026C33.7364 31.5026 33.6753 31.5039 33.6143 31.5063C33.0141 31.4592 32.4193 31.6484 31.9565 32.0333C31.4936 32.4183 31.1993 32.9687 31.1363 33.5674C31.1289 33.704 31.1355 33.8411 31.1558 33.9764C31.2322 34.4362 31.4266 34.8684 31.7199 35.2308C32.0132 35.5931 32.3955 35.8732 32.8294 36.0437C33.3687 36.2389 33.945 36.3102 34.5156 36.2522C35.0861 36.1941 35.6363 36.0084 36.1253 35.7086C36.6173 35.4696 37.022 35.0824 37.2825 34.6014C37.4215 34.3105 37.4684 33.984 37.4168 33.6657L37.4143 33.6383C37.186 32.3449 35.3758 31.5026 33.7986 31.5026Z" fill="#B6ACB8"/>
<path d="M36.7505 30.1254C36.6389 30.1252 36.5293 30.0952 36.4331 30.0384C36.337 29.9817 36.2577 29.9002 36.2037 29.8025C36.1496 29.7048 36.1227 29.5944 36.1257 29.4828C36.1287 29.3712 36.1615 29.2624 36.2207 29.1677C36.5613 28.6263 36.908 28.0911 37.2559 27.554L37.7124 26.8496C37.7567 26.7804 37.8142 26.7205 37.8816 26.6736C37.949 26.6266 38.0251 26.5934 38.1054 26.5759C38.1857 26.5584 38.2686 26.5569 38.3495 26.5715C38.4304 26.5861 38.5075 26.6165 38.5766 26.661C38.6457 26.7055 38.7053 26.7632 38.7521 26.8308C38.7988 26.8984 38.8317 26.9745 38.849 27.0549C38.8662 27.1352 38.8674 27.2182 38.8526 27.299C38.8377 27.3798 38.807 27.4569 38.7622 27.5259L38.3057 28.2333C37.9602 28.7661 37.6172 29.2965 37.2803 29.833C37.2239 29.9225 37.1457 29.9962 37.053 30.0473C36.9604 30.0985 36.8563 30.1253 36.7505 30.1254Z" fill="#B6ACB8"/>
<path d="M31.875 40.0498C31.7243 40.0497 31.5787 39.9952 31.4649 39.8963C31.3512 39.7974 31.277 39.6607 31.2561 39.5115C31.2351 39.3622 31.2688 39.2104 31.3509 39.084C31.433 38.9576 31.558 38.8651 31.7029 38.8235C31.7233 38.8147 31.7413 38.8013 31.7555 38.7842C31.7697 38.7671 31.7797 38.7469 31.7847 38.7253C31.8149 38.5627 31.9083 38.4187 32.0445 38.3249C32.1806 38.231 32.3484 38.1949 32.5111 38.2244C32.6738 38.254 32.8182 38.3467 32.9127 38.4825C33.0071 38.6182 33.044 38.7858 33.0151 38.9487C32.9691 39.2002 32.8543 39.434 32.6834 39.6241C32.5125 39.8143 32.2923 39.9534 32.0471 40.0259C31.9911 40.0416 31.9332 40.0496 31.875 40.0498Z" fill="#B6ACB8"/>
<path d="M29.6045 33.607C29.3066 33.4721 29.0698 33.3647 28.833 33.2463C28.7593 33.2097 28.6935 33.159 28.6394 33.097C28.5853 33.035 28.544 32.9629 28.5178 32.8849C28.4916 32.8069 28.4811 32.7245 28.4869 32.6424C28.4926 32.5603 28.5145 32.4802 28.5513 32.4066C28.5881 32.333 28.6391 32.2674 28.7013 32.2135C28.7635 32.1597 28.8358 32.1186 28.9139 32.0927C28.992 32.0669 29.0745 32.0567 29.1565 32.0627C29.2386 32.0688 29.3186 32.091 29.3921 32.1281C29.6143 32.2392 29.8364 32.3399 30.0574 32.44L29.8621 33.0375L29.6045 33.607Z" fill="#B6ACB8"/>
<path d="M50.1882 30.9875C50.0742 30.9878 49.9623 30.9567 49.8647 30.8978L48.0764 29.8101C47.9344 29.7243 47.8323 29.5857 47.7926 29.4246C47.7529 29.2636 47.7788 29.0933 47.8646 28.9514C47.9504 28.8094 48.089 28.7073 48.2501 28.6676C48.4111 28.6279 48.5814 28.6538 48.7233 28.7396L50.5117 29.8272C50.6284 29.898 50.7187 30.0049 50.769 30.1318C50.8192 30.2587 50.8266 30.3986 50.7899 30.53C50.7533 30.6615 50.6746 30.7774 50.566 30.86C50.4573 30.9426 50.3247 30.9873 50.1882 30.9875Z" fill="#B6ACB8"/>
<path d="M48.9695 35.8319C48.7684 35.8322 48.568 35.8057 48.3738 35.7532C48.2139 35.7098 48.0778 35.6046 47.9953 35.4609C47.9129 35.3171 47.891 35.1465 47.9344 34.9866C47.9778 34.8266 48.0829 34.6905 48.2267 34.6081C48.3704 34.5256 48.5411 34.5037 48.701 34.5471C48.8985 34.5929 49.1044 34.5875 49.2992 34.5314C49.4941 34.4753 49.6713 34.3704 49.8143 34.2267C49.8714 34.1673 49.9397 34.1199 50.0152 34.087C50.0907 34.0542 50.1719 34.0366 50.2543 34.0352C50.3366 34.0339 50.4184 34.0488 50.4949 34.0792C50.5715 34.1095 50.6413 34.1547 50.7003 34.2121C50.7593 34.2696 50.8064 34.3381 50.8389 34.4138C50.8713 34.4894 50.8885 34.5708 50.8895 34.6531C50.8904 34.7355 50.875 34.8172 50.8443 34.8936C50.8135 34.9699 50.768 35.0395 50.7103 35.0982C50.4832 35.3298 50.2124 35.5139 49.9136 35.6399C49.6147 35.7658 49.2938 35.8311 48.9695 35.8319Z" fill="#B6ACB8"/>
<path d="M20.0747 47.5371C19.9321 47.5371 19.7938 47.4885 19.6828 47.3991C19.0466 46.8872 18.3222 46.4958 17.5453 46.2443C17.4669 46.2193 17.3942 46.179 17.3314 46.1258C17.2685 46.0726 17.2169 46.0075 17.1793 45.9342C17.1417 45.861 17.119 45.781 17.1124 45.699C17.1058 45.6169 17.1155 45.5344 17.1409 45.456C17.1663 45.3777 17.2069 45.3052 17.2604 45.2427C17.3139 45.1801 17.3793 45.1287 17.4527 45.0915C17.5261 45.0543 17.6062 45.0319 17.6883 45.0257C17.7704 45.0195 17.8529 45.0296 17.9311 45.0554C18.8528 45.3531 19.7121 45.8173 20.4665 46.425C20.5672 46.5061 20.6402 46.6165 20.6756 46.7409C20.7109 46.8653 20.7068 46.9976 20.6638 47.1196C20.6209 47.2416 20.5411 47.3472 20.4356 47.422C20.3301 47.4968 20.204 47.537 20.0747 47.5371Z" fill="#B6ACB8"/>
<path d="M16.0999 39.1624C15.8944 39.1623 15.6892 39.1477 15.4859 39.1185C15.3694 39.1016 15.2601 39.0521 15.1704 38.9759C15.0808 38.8996 15.0145 38.7996 14.9792 38.6873C14.9439 38.575 14.941 38.4551 14.9708 38.3412C15.0006 38.2273 15.0619 38.1242 15.1477 38.0437C15.4948 37.7211 15.7365 37.3014 15.8413 36.8393C15.9461 36.3772 15.9092 35.8943 15.7353 35.4536C15.5615 35.0128 15.2587 34.6347 14.8667 34.3687C14.4746 34.1026 14.0114 33.961 13.5376 33.9622C13.4177 33.9627 13.2998 33.9317 13.1957 33.8722C13.0916 33.8128 13.0049 33.727 12.9444 33.6235C12.886 33.525 12.856 33.4124 12.8575 33.2979C12.859 33.1835 12.892 33.0716 12.9529 32.9747C13.3454 32.4375 13.869 32.0098 14.4738 31.7325C15.0786 31.4552 15.7444 31.3376 16.4076 31.3909C17.0708 31.4442 17.7092 31.6666 18.262 32.0369C18.8147 32.4072 19.2633 32.9131 19.5649 33.5061C19.8665 34.0992 20.0111 34.7596 19.9848 35.4244C19.9585 36.0892 19.7621 36.7362 19.4146 37.3035C19.0671 37.8709 18.5799 38.3397 17.9996 38.6651C17.4193 38.9905 16.7652 39.1617 16.0999 39.1624ZM14.7974 32.9509C15.2611 33.1218 15.6846 33.3866 16.0415 33.7285C16.3984 34.0704 16.6809 34.4823 16.8715 34.9383C17.0621 35.3943 17.1567 35.8847 17.1493 36.3789C17.1419 36.873 17.0328 37.3604 16.8286 37.8105C17.1879 37.7069 17.5211 37.5285 17.8065 37.2871C18.0919 37.0456 18.323 36.7465 18.4846 36.4093C18.6462 36.0722 18.7347 35.7048 18.7443 35.331C18.7538 34.9573 18.6842 34.5858 18.5401 34.2408C18.3959 33.8959 18.1804 33.5854 17.9077 33.3296C17.635 33.0739 17.3114 32.8787 16.9579 32.7568C16.6045 32.635 16.2292 32.5893 15.8569 32.6228C15.4845 32.6562 15.1235 32.768 14.7974 32.9509Z" fill="#B6ACB8"/>
<path d="M26.4626 15.1503C26.3218 15.1504 26.185 15.1028 26.0746 15.0155C25.9642 14.9281 25.8865 14.806 25.8541 14.6689C25.8218 14.5319 25.8366 14.3879 25.8963 14.2604C25.956 14.1328 26.0571 14.0292 26.183 13.9662C26.8037 13.6574 27.3791 13.2649 27.8932 12.7999C27.954 12.7447 28.025 12.7021 28.1022 12.6744C28.1795 12.6467 28.2614 12.6345 28.3434 12.6384C28.4253 12.6424 28.5057 12.6625 28.5799 12.6975C28.6541 12.7325 28.7207 12.7818 28.7758 12.8426C28.831 12.9033 28.8736 12.9743 28.9013 13.0516C28.929 13.1288 28.9412 13.2107 28.9372 13.2927C28.9333 13.3747 28.9132 13.455 28.8782 13.5292C28.8431 13.6034 28.7938 13.67 28.7331 13.7251C28.1348 14.2672 27.4648 14.7245 26.7421 15.0844C26.6553 15.1276 26.5596 15.1502 26.4626 15.1503Z" fill="#86888D"/>
<path opacity="0.46" d="M54.4248 32.5502C54.3482 33.6033 53.9659 34.6112 53.3248 35.4502C52.9951 35.8384 52.5914 36.1571 52.1373 36.3877C50.4827 42.0567 46.7273 46.8807 41.6373 49.8752C41.1748 50.1502 40.7123 50.4002 40.2373 50.6377C39.9998 50.7502 39.7623 50.8752 39.5248 50.9752C39.0373 51.2002 38.5498 51.4002 38.0498 51.5877C37.5498 51.7752 37.0498 51.9502 36.5248 52.1002C35.7515 52.3273 34.9672 52.515 34.1749 52.6627C32.7989 52.9257 31.4008 53.0555 29.9999 53.0502C26.9811 53.0526 23.9912 52.4623 21.1999 51.3127C20.4292 51.7578 19.5248 51.913 18.6499 51.7502C17.4936 51.4952 16.4272 50.934 15.5624 50.1252C15.4499 50.0252 15.3249 49.9252 15.2124 49.8127L14.9499 49.5502C14.7874 49.3627 14.6249 49.1627 14.4624 48.9502C14.3999 48.8377 14.3249 48.7127 14.2624 48.5877C13.9712 47.9632 13.8964 47.2594 14.0499 46.5877C14.0499 46.5752 14.0374 46.5752 14.0124 46.5627C13.9124 46.4502 13.8124 46.3627 13.7123 46.2502C13.3623 45.9127 13.0373 45.5627 12.7123 45.2002L12.6123 45.0877L13.4373 44.7377C13.5961 44.6738 13.7437 44.5852 13.8748 44.4752L14.1748 44.2502L14.5123 44.4002C18.4677 46.104 22.8398 46.5956 27.0748 45.8127C31.0992 45.0593 34.8315 43.1922 37.8477 40.4235C40.8639 37.6548 43.0429 34.0955 44.1373 30.1502L44.2123 29.8502L44.4998 29.7377C44.8805 29.5877 45.2163 29.3424 45.4748 29.0252C45.9621 28.3805 46.249 27.6067 46.2998 26.8002C46.3773 26.1121 46.3034 25.4154 46.0831 24.759C45.8628 24.1026 45.5016 23.5022 45.0248 23.0002L44.8623 22.8377L44.8373 22.6002C44.4778 18.1762 42.7672 13.9696 39.9373 10.5502L38.2623 8.5127C41.2379 9.67495 43.9429 11.4364 46.2094 13.6878C48.4758 15.9392 50.2552 18.6324 51.4373 21.6002C51.5248 21.8252 51.6248 22.0627 51.6998 22.3002C51.8748 22.7627 52.0248 23.2377 52.1623 23.7252C52.2248 23.9627 52.2873 24.2002 52.3498 24.4502C52.4259 24.7084 52.4844 24.9715 52.5248 25.2377C52.5998 25.5627 52.6623 25.8877 52.7123 26.2252C52.7445 26.3529 52.7695 26.4822 52.7873 26.6127C52.8498 27.0377 52.8998 27.4627 52.9373 27.9002C53.4936 28.5301 53.9131 29.2686 54.1692 30.0691C54.4252 30.8695 54.5123 31.7144 54.4248 32.5502Z" fill="#52526B"/>
</svg>
