<svg width="60" height="60" viewBox="0 0 60 60" fill="none" xmlns="http://www.w3.org/2000/svg">
<path d="M29.9484 54.732C29.3114 54.732 28.6829 56.4916 28.0569 56.4473C27.4222 56.4023 26.8543 55.9354 26.2326 55.8464C25.6035 55.7563 24.5024 58.0003 23.8882 57.8667C23.2679 57.7318 22.8939 56.2674 22.2905 56.0898C21.6821 55.9108 20.5848 56.9123 19.9954 56.6917C19.402 56.4696 19.4002 54.6275 18.8277 54.365C18.2523 54.1011 18.7074 51.9245 18.1548 51.6215C17.6001 51.3173 15.6634 53.408 15.1336 53.0663C14.6022 52.7235 15.4178 50.4829 14.9133 50.1042C14.4078 49.7247 13.8004 49.6171 13.3237 49.2034C12.8466 48.7893 12.8671 47.9905 12.4206 47.5439C11.9742 47.0974 10.4206 47.7724 10.0067 47.2952C9.5932 46.8184 9.17183 46.3582 8.79257 45.8527C8.41399 45.3481 7.8781 44.9514 7.5355 44.42C7.19385 43.8901 8.71897 42.3256 8.41491 41.7708C8.11209 41.2183 5.39584 41.9266 5.13209 41.3512C4.8698 40.7789 5.82726 39.6902 5.60539 39.0971C5.38495 38.5079 6.06082 37.6933 5.882 37.0853C5.70459 36.482 4.3045 36.2478 4.16974 35.6276C4.03641 35.0141 3.80559 34.4216 3.71562 33.7932C3.62665 33.1716 3.5976 32.5434 3.55265 31.9088C3.50831 31.2831 2.31152 30.657 2.31152 30.0202C2.31152 29.3832 5.31664 28.885 5.36101 28.2591C5.40601 27.6244 3.21032 26.8082 3.29934 26.1866C3.38942 25.5575 3.88615 24.9912 4.0197 24.377C4.15457 23.7567 5.31712 23.4411 5.4947 22.8377C5.6737 22.2294 3.63024 20.8715 3.85086 20.282C4.07296 19.6886 4.21902 18.9573 4.48155 18.3849C4.74545 17.8094 7.90421 18.7024 8.20719 18.1499C8.51137 17.5951 5.73537 15.2029 6.07719 14.673C6.41995 14.1416 7.4704 13.9768 7.84915 13.4722C8.22857 12.9667 9.49943 13.1326 9.91313 12.6559C10.3272 12.1788 10.1467 11.1069 10.5932 10.6604C11.0398 10.214 12.1861 10.4806 12.6632 10.0667C13.14 9.65314 14.6494 10.6283 15.1549 10.249C15.6595 9.87044 15.6775 8.9739 16.2089 8.63129C16.7388 8.28965 16.583 6.85653 17.1378 6.55246C17.6903 6.24964 18.5276 6.52689 19.1031 6.26314C19.6753 6.00085 20.5649 6.6645 21.158 6.44261C21.7472 6.22218 22.3539 6.39969 22.962 6.22086C23.5653 6.04344 23.7341 4.4367 24.3542 4.30193C24.9677 4.1686 25.6173 4.36783 26.2457 4.27788C26.8673 4.1889 27.3155 2.11988 27.9501 2.07493C28.5758 2.03059 29.3117 3.4866 29.9485 3.4866C30.5855 3.4866 31.3425 1.73625 31.9685 1.78061C32.6031 1.82561 33.2351 2.76085 33.8568 2.84988C34.4859 2.93995 35.2757 2.58693 35.8898 2.72046C36.5101 2.85535 36.8831 4.18068 37.4865 4.35821C38.0949 4.5372 38.2424 5.9858 38.8319 6.20644C39.4252 6.42853 40.4041 5.61499 40.9766 5.87753C41.552 6.14143 41.1644 8.16176 41.717 8.46474C42.2718 8.76893 44.2338 6.632 44.7637 6.97379C45.2951 7.31655 46.0492 7.46593 46.5537 7.84468C47.0592 8.2241 47.7462 8.52255 48.2229 8.93625C48.7 9.3503 49.2902 9.79021 49.7366 10.2368C50.1831 10.6833 51.1309 10.8328 51.5448 11.31C51.9584 11.7867 50.4432 13.8938 50.8225 14.3993C51.2011 14.9038 51.3851 15.4976 51.7277 16.029C52.0694 16.559 52.9715 16.7319 53.2756 17.2867C53.5784 17.8392 55.5967 17.6117 55.8604 18.1871C56.1227 18.7594 53.0972 20.7141 53.319 21.3072C53.5395 21.8964 56.7346 21.4947 56.9134 22.1028C57.0909 22.7061 54.7106 23.9843 54.8454 24.6045C54.9787 25.218 56.2321 25.5988 56.3221 26.2271C56.411 26.8487 54.3588 27.6346 54.4037 28.2691C54.4481 28.8948 58.5592 29.3834 58.5592 30.0202C58.5592 30.6573 58.5739 31.4385 58.5295 32.0644C58.4845 32.6991 57.516 33.351 57.427 33.9727C57.337 34.6017 55.4994 34.9381 55.3659 35.5523C55.231 36.1726 56.0008 37.0175 55.8233 37.6209C55.6443 38.2292 54.6293 38.5561 54.4087 39.1456C54.1866 39.7389 52.5507 39.6489 52.2881 40.2214C52.0242 40.7968 51.9695 41.3253 51.6665 41.8778C51.3623 42.4326 51.9181 43.3905 51.5763 43.9203C51.2335 44.4518 50.0029 44.2444 49.6242 44.749C49.2447 45.2544 49.2949 45.9509 48.8812 46.4276C48.4671 46.9047 49.1401 48.3232 48.6936 48.7697C48.247 49.2161 47.6344 49.4717 47.1572 49.8856C46.6805 50.2991 46.3101 50.8284 45.8046 51.2076C45.3 51.5862 44.6532 51.7393 44.1218 52.0819C43.5918 52.4235 43.2954 53.1501 42.7406 53.4541C42.1881 53.757 42.1926 55.3097 41.6171 55.5734C41.0449 55.8357 39.2099 53.0493 38.6168 53.2712C38.0276 53.4917 37.5568 53.6877 36.9488 53.8665C36.3455 54.0439 35.9889 54.8033 35.3688 54.938C34.7553 55.0714 34.1488 54.7591 33.5205 54.849C32.8989 54.938 32.3921 55.2485 31.7576 55.2934C31.1318 55.3377 30.5852 54.732 29.9484 54.732Z" fill="#FFA866"/>
<path d="M30 51.25C41.736 51.25 51.25 41.736 51.25 30C51.25 18.2639 41.736 8.75 30 8.75C18.2639 8.75 8.75 18.2639 8.75 30C8.75 41.736 18.2639 51.25 30 51.25Z" fill="#FCF260"/>
<path d="M16.3999 13.6628C21.5493 12.4217 26.8696 12.0482 32.1419 12.5578" stroke="#FFA866" stroke-linecap="round" stroke-linejoin="round"/>
<path d="M26.8721 16.1622C31.2531 15.144 35.7882 14.9709 40.2341 15.6522C42.2043 16.0873 44.2174 16.2983 46.2351 16.2812" stroke="#FFA866" stroke-linecap="round" stroke-linejoin="round"/>
<path d="M14.4526 24.8213C20.7964 23.371 27.3495 22.2006 33.7864 23.1558C36.6937 23.5872 39.6383 24.4493 42.5209 23.8758" stroke="#FFA866" stroke-linecap="round" stroke-linejoin="round"/>
<path d="M27.6211 32.2358C33.1102 33.5928 38.8112 33.8666 44.405 33.0419" stroke="#FFA866" stroke-linecap="round" stroke-linejoin="round"/>
<path d="M16.0991 39.2881C18.0386 40.8756 20.3805 41.8937 22.8643 42.2291C25.341 42.5577 27.8579 42.4051 30.2768 41.7797C32.278 41.2912 34.3392 40.548 36.3436 41.0231C37.0355 41.1569 37.6622 41.5195 38.123 42.0527C38.3466 42.3226 38.4854 42.6526 38.5217 43.0012C38.558 43.3497 38.4903 43.7013 38.327 44.0114C38.1047 44.2912 37.8292 44.5243 37.5164 44.6973C37.2037 44.8702 36.8598 44.9795 36.5045 45.019C32.1704 46.0036 31.2528 48.083 28.9676 47.3643C28.0133 47.0641 27.0654 46.353 27.1462 45.8616C27.2158 45.4388 28.026 45.3072 29.1953 44.9509C30.4866 44.5553 31.7369 44.0369 32.9292 43.4027" stroke="#FFA866" stroke-linecap="round" stroke-linejoin="round"/>
</svg>
