<svg width="48" height="48" viewBox="0 0 48 48" fill="none" xmlns="http://www.w3.org/2000/svg">
<g clip-path="url(#clip0_1_2)">
<path d="M41.6489 27.9294C40.578 27.9294 39.71 28.7974 39.71 29.8683V41.6489C39.71 43.0127 38.6004 44.1221 37.2367 44.1221H6.35119C4.98741 44.1221 3.87797 43.0126 3.87797 41.6489V10.7634C3.87797 9.39967 4.9875 8.29023 6.35119 8.29023H18.1318C19.2026 8.29023 20.0707 7.4221 20.0707 6.35129C20.0707 5.28048 19.2026 4.41235 18.1318 4.41235H6.35119C2.84916 4.41235 0 7.26151 0 10.7635V41.649C9.375e-05 45.1509 2.84925 48 6.35119 48H37.2367C40.7387 48 43.5878 45.1508 43.5878 41.6488V29.8682C43.5878 28.7974 42.7198 27.9294 41.6489 27.9294Z" fill="black"/>
<path d="M47.4321 9.39256L38.6077 0.568158C37.8504 -0.189061 36.6228 -0.189061 35.8656 0.568158L13.8046 22.6292C13.441 22.9929 13.2367 23.4861 13.2367 24.0003V32.8247C13.2367 33.8956 14.1048 34.7637 15.1756 34.7637H24C24.5143 34.7637 25.0074 34.5594 25.371 34.1958L47.4321 12.1347C47.7957 11.771 48 11.2778 48 10.7636C48 10.2493 47.7957 9.75622 47.4321 9.39256ZM23.1969 30.8857H17.1146V24.8034L37.2367 4.68135L43.319 10.7637L23.1969 30.8857Z" fill="black"/>
</g>
<defs>
<clipPath id="clip0_1_2">
<rect width="48" height="48" fill="white"/>
</clipPath>
</defs>
</svg>
